Coordinates
version=1
nRows=20
nColumns=34
inDegrees=yes

Units are S.I. units (second, meters, Newtons, ...)
If the header above contains a line with 'inDegrees', this indicates whether rotational values are in degrees (yes) or radians (no).

endheader
time	pelvis_tilt	pelvis_list	pelvis_rotation	pelvis_tx	pelvis_ty	pelvis_tz	hip_flexion_r	hip_adduction_r	hip_rotation_r	knee_angle_r	ankle_angle_r	subtalar_angle_r	mtp_angle_r	hip_flexion_l	hip_adduction_l	hip_rotation_l	knee_angle_l	ankle_angle_l	subtalar_angle_l	mtp_angle_l	lumbar_extension	lumbar_bending	lumbar_rotation	arm_flex_r	arm_add_r	arm_rot_r	elbow_flex_r	pro_sup_r	arm_flex_l	arm_add_l	arm_rot_l	elbow_flex_l	pro_sup_l
      0.00000000	    -10.55817494	     13.86762596	    -30.19501400	     -2.29515158	      0.92160313	      0.73030733	     33.77271508	     -3.48920694	      1.25407909	     11.57916415	     -5.44571956	      0.99483073	      0.00000000	     13.40368755	      0.13916669	    -24.32804623	      0.00000000	     -1.61254951	    -10.70704375	      0.00000000	    -13.86135854	     11.31276057	     -0.20038770	    -15.93773246	     -5.70539633	    -24.84531534	     46.80130904	     84.32380066	     26.12442639	    -26.97754379	     54.24461236	     50.80947798	     60.89784688
      0.01666670	    -13.99365452	     16.62022139	    -30.16036868	     -2.29135337	      0.91309838	      0.73150525	     37.36281426	     -3.22809674	      2.54152308	     10.56634909	     -1.42749134	      3.34955439	      0.00000000	     17.20378148	      0.15000908	    -31.82432202	      0.00000000	      1.26311884	     -5.43901780	      0.00000000	     -9.52362505	     11.15088777	     -3.60103715	    -14.50035265	     -9.47953131	    -17.98111909	     44.38285608	     83.34259101	     17.76982758	    -31.90952911	     42.69448135	     58.14044158	     61.75122418
      0.03333330	    -16.09151849	     17.18422544	    -29.70204602	     -2.28937407	      0.91024583	      0.73194970	     38.44309984	     -2.46200951	      3.56005384	      9.00939625	     -0.68751474	      3.58300189	      0.00000000	     19.15975699	     -1.01626598	    -33.79570292	      0.00000000	      1.04640422	     -4.57576753	      0.00000000	     -7.14830131	     12.08469209	     -4.77523594	    -13.55510493	    -10.55327215	    -17.24320069	     43.48775465	     82.84042025	     17.22331208	    -33.61501991	     44.25849258	     58.21224615	     62.43087997
      0.05000000	    -17.52016963	     17.87984748	    -29.15738225	     -2.28823511	      0.90591852	      0.73147413	     39.49152005	     -2.27627390	      4.54201605	      8.31276391	     -0.34720746	      4.15437329	      0.00000000	     20.96598428	     -1.34757274	    -35.67533469	      0.28637079	      1.61556460	     -2.53585290	      0.00000000	     -5.31095931	     12.53442611	     -5.47625974	    -12.73428170	    -11.06027443	    -16.26656846	     42.34580446	     82.09372396	     17.13508476	    -34.87903579	     45.97872794	     59.73019815	     63.04654952
      0.06666670	    -18.20525647	     18.18948557	    -29.08566466	     -2.28663279	      0.90572292	      0.73166945	     39.85552756	     -2.05203574	      5.64806422	      7.88851590	     -0.06297302	      4.32737336	      0.00000000	     21.87048675	     -1.60881550	    -37.31366219	      0.70543340	      2.56897005	     -0.51890555	      0.00000000	     -4.61937106	     12.98461354	     -5.75261767	    -11.95593748	    -11.35009136	    -14.35625822	     41.82444572	     79.80373201	     17.12447184	    -35.86078652	     47.75773047	     61.34782168	     63.79632819
      0.08333330	    -19.05765274	     18.82180803	    -28.95203072	     -2.28482778	      0.90302327	      0.73176276	     40.85687884	     -2.13121633	      6.56728302	      8.05070280	      0.22582175	      4.75281247	      0.00000000	     23.08614191	     -1.55375612	    -38.13148670	      1.12973858	      2.99231294	     -0.15227310	      0.00000000	     -3.37457992	     13.17331555	     -5.95617365	    -11.89124216	    -11.08479228	    -14.32771775	     42.39785866	     79.25587470	     16.76279522	    -36.01100550	     48.36147706	     61.97436286	     63.93770121
      0.10000000	    -19.55898706	     19.19202748	    -29.01259879	     -2.28291215	      0.90385940	      0.73247493	     41.33417485	     -2.15133292	      7.57783554	      8.06839851	      0.48726918	      5.18973031	      0.00000000	     23.69487572	     -1.52467431	    -38.76592752	      1.33755385	      3.33761633	      0.18990016	      0.00000000	     -2.79227282	     13.38715891	     -5.95837691	    -11.70904302	    -10.87190364	    -14.26045441	     42.65318766	     78.93133034	     16.49126855	    -36.04532880	     48.87703141	     62.28964069	     64.02320421
      0.11666670	    -20.02436461	     19.78106917	    -29.10216811	     -2.28230151	      0.90374758	      0.73300814	     42.11671685	     -2.34791061	      8.37042048	      8.37090942	      0.65715108	      5.46732519	      0.00000000	     24.33814745	     -1.27248272	    -39.60844472	      1.33931912	      3.43442205	      0.94227328	      0.00000000	     -2.15456984	     13.19116592	     -5.91276108	    -11.38772151	    -10.46441300	    -14.06264766	     43.01175289	     78.46996653	     16.45112586	    -36.02865436	     49.58666810	     62.59740264	     64.11657393
      0.13333330	    -20.26125366	     20.09142996	    -29.15569604	     -2.28213084	      0.90413025	      0.73354936	     42.38238514	     -2.47397227	      8.99071338	      8.32912606	      0.60982800	      5.75412002	      0.00000000	     24.65079026	     -1.11843582	    -39.99999995	      1.21901285	      3.19620160	      1.24044725	      0.00000000	     -2.01227071	     13.09648288	     -5.87481894	    -11.04724066	    -10.12951076	    -13.89399908	     43.27441718	     78.26666433	     16.60840379	    -35.99544806	     49.95465814	     62.61887093	     64.14280221
      0.15000000	    -20.57642456	     20.45649380	    -29.08241912	     -2.28125446	      0.90295573	      0.73385948	     42.81162322	     -2.62578911	      9.54531436	      8.37291006	      0.49622647	      5.39762322	      0.00000000	     25.04095146	     -0.88449033	    -39.99999995	      0.97876272	      2.79645348	      1.21666866	      0.00000000	     -1.67242518	     12.87043538	     -4.67302708	    -11.71475114	     -9.93410121	    -13.46752711	     43.98811612	     74.87039003	     19.37911824	    -35.71097651	     54.86723757	     61.98445278	     63.93993309
      0.16666670	    -20.74811270	     20.67980843	    -29.06895816	     -2.27949084	      0.90684322	      0.73448474	     42.94578811	     -2.76687929	      9.51411238	      8.25786417	      0.21216483	      5.58038552	      0.00000000	     25.12998346	     -0.66491697	    -39.99999995	      0.64628150	      2.10417793	      1.19758474	      0.00000000	     -1.66225424	     12.86831998	     -4.64631657	    -11.35141688	     -9.64062231	    -13.56841830	     44.07915922	     74.77129472	     19.32662216	    -35.39393830	     54.95638731	     61.84709339	     63.87166380
      0.18333330	    -20.88720133	     20.90829201	    -29.07677830	     -2.27791350	      0.90716038	      0.73480238	     43.00372559	     -2.89115581	      9.46228110	      8.01977689	     -0.05086444	      5.71288890	      0.00000000	     25.17254282	     -0.42487441	    -39.99999995	      0.38538270	      1.50393133	      1.13544763	      0.00000000	     -1.65234793	     12.83979560	     -4.60504508	    -11.10259017	     -9.49569851	    -13.69600257	     44.08073278	     74.68989877	     19.21868920	    -34.99820408	     55.07688450	     61.77409521	     63.81824651
      0.20000000	    -20.99481941	     21.19276247	    -29.16895783	     -2.27732210	      0.90857577	      0.73518890	     43.03772169	     -3.02594227	      9.26776678	      7.62502147	     -0.38435668	      5.92952498	      0.00000000	     25.18521824	     -0.16337390	    -39.99999995	      0.10206445	      0.68559829	      0.96274364	      0.00000000	     -1.69360027	     12.74452136	     -4.38141244	    -10.86853677	     -9.29955156	    -14.11004649	     43.84163268	     74.50636385	     19.10390011	    -34.56729674	     55.14047620	     61.35358160	     63.67651193
      0.21666670	    -20.99293822	     21.45041530	    -29.25264564	     -2.27793817	      0.90634813	      0.73510639	     43.05573525	     -3.18654884	      9.17036439	      7.41456238	     -0.37990183	      5.91410399	      0.00000000	     25.31878849	     -0.04132847	    -39.99999995	      0.27375165	      0.56520023	      1.00451301	      0.00000000	     -1.82783356	     12.70291212	     -4.17936114	    -10.58113432	     -9.13669158	    -14.13631205	     43.88526681	     74.48735567	     18.96190026	    -34.27377102	     55.21070040	     61.34505853	     63.66088533
      0.23333330	    -20.94948983	     21.94837280	    -29.42279236	     -2.27981699	      0.90501716	      0.73500870	     43.28322145	     -3.51353883	      9.11157958	      7.21833376	     -0.48027187	      6.45270101	      0.00000000	     25.53287622	      0.28930014	    -39.99999995	      0.26105002	      0.00041079	      0.60376883	      0.00000000	     -1.80512197	     12.29701102	     -3.47237599	    -10.46666587	     -8.45576050	    -15.78280084	     43.29754016	     74.06993961	     19.28362483	    -33.37174077	     54.77349060	     60.28273433	     63.26703485
      0.25000000	    -20.93322313	     22.18524600	    -29.45323099	     -2.28207405	      0.90433901	      0.73516897	     43.38288220	     -3.65530171	      9.10919511	      6.98351654	     -0.41163657	      6.45320002	      0.00000000	     25.81997218	      0.28368239	    -39.99999995	      0.49786945	     -0.06419977	      0.68340339	      0.00000000	     -2.00925919	     12.18690693	     -3.31753085	    -10.16941159	     -8.30276713	    -15.81404882	     43.41947087	     74.06050670	     19.38980339	    -33.38862810	     54.74845423	     60.22322768	     63.24528124
      0.26666670	    -20.90629756	     22.46991794	    -29.56952442	     -2.28467377	      0.90387193	      0.73557568	     43.73172543	     -3.67772035	      9.33619741	      7.00204074	     -0.40496851	      6.61295892	      0.00000000	     26.17324607	      0.20979706	    -39.99999995	      0.76174808	     -0.08460677	      0.75643764	      0.00000000	     -2.31746656	     11.96858953	     -3.15822379	     -9.85552373	     -8.10305144	    -15.87480307	     43.56999790	     74.04896226	     19.71473197	    -33.59503151	     54.61095396	     60.11842037	     63.20762354
      0.28333330	    -20.83380776	     22.80400225	    -29.95875443	     -2.28674192	      0.90358736	      0.73598868	     44.29143575	     -3.52846260	      9.63727391	      7.33574215	     -0.40999796	      6.84929983	      0.00000000	     26.43717076	      0.08696151	    -39.99999995	      0.90265560	      0.01123841	      0.74368848	      0.00000000	     -2.56676631	     11.66878997	     -2.82685078	     -9.58696359	     -7.94859107	    -15.97245162	     43.75196851	     74.03831401	     20.02187063	    -33.95194275	     54.43798155	     60.02834834	     63.15995295
      0.30000000	    -20.76431373	     23.55249625	    -30.53874922	     -2.28704310	      0.90242740	      0.73614345	     45.22023557	     -3.59868284	     10.17845364	      7.96351010	      0.01142718	      7.46576291	      0.00000000	     26.77470370	      0.34898144	    -39.99999995	      0.80990817	     -0.42817299	     -0.43512172	      0.00000000	     -2.65234128	     11.01030394	     -1.66941557	    -10.12244688	     -7.55433704	    -16.99674380	     44.48741113	     73.97804586	     20.44519293	    -34.07586217	     54.14352180	     60.74461245	     62.89534868
      0.31666670	    -20.64847779	     23.84695098	    -30.86071489	     -2.28513898	      0.90354042	      0.73638921	     45.41766724	     -3.67494826	     10.22297260	      8.06509993	     -0.26469012	      7.71184463	      0.00000000	     26.80970358	      0.37760829	    -39.99999995	      0.85974320	     -0.46334773	     -0.42780798	      0.00000000	     -2.81356956	     10.83308467	     -1.37254045	     -9.90691763	     -7.38917734	    -17.23574118	     44.69295415	     73.97806720	     20.51054923	    -34.18616399	     54.07103167	     60.70649860	     62.82750625
